<?xml version="1.0" encoding="UTF-8"?>
<svg height="128px" viewBox="0 0 128 128" width="128px" xmlns="http://www.w3.org/2000/svg">
    <defs>
        <linearGradient id="a" gradientUnits="userSpaceOnUse" x1="11.999989" x2="115.999989" y1="64" y2="64">
            <stop offset="0" stop-color="#0a1e2e"/>
            <stop offset="0.05" stop-color="#0d4a6e"/>
            <stop offset="0.1" stop-color="#0b3d5c"/>
            <stop offset="0.899999" stop-color="#0b3d5c"/>
            <stop offset="0.95" stop-color="#0d4a6e"/>
            <stop offset="1" stop-color="#0a1e2e"/>
        </linearGradient>
        <linearGradient id="b" gradientUnits="userSpaceOnUse" x1="12" x2="112.041023" y1="60" y2="80.988281">
            <stop offset="0" stop-color="#0d4a6e"/>
            <stop offset="0.384443" stop-color="#2abfd8"/>
            <stop offset="0.720567" stop-color="#0d4a6e"/>
            <stop offset="1" stop-color="#0d4a6e"/>
        </linearGradient>
        <linearGradient id="artixgrad" gradientUnits="userSpaceOnUse" x1="76" y1="74" x2="124" y2="122">
            <stop offset="0" stop-color="#2abfd8"/>
            <stop offset="0.4" stop-color="#1a9ab8"/>
            <stop offset="1" stop-color="#0a3e60"/>
        </linearGradient>
        <linearGradient id="shadowgrad" gradientUnits="userSpaceOnUse" x1="76" y1="102" x2="124" y2="102">
            <stop offset="0" stop-color="#093755"/>
            <stop offset="0.15" stop-color="#0a3e60"/>
            <stop offset="0.5" stop-color="#1e7cc0"/>
            <stop offset="0.85" stop-color="#0a3e60"/>
            <stop offset="1" stop-color="#093755"/>
        </linearGradient>
    </defs>

    <!-- Box body -->
    <path d="m 20 22 h 88 c 4.417969 0 8 3.582031 8 8 v 78 c 0 4.417969 -3.582031 8 -8 8 h -88 c -4.417969 0 -8 -3.582031 -8 -8 v -78 c 0 -4.417969 3.582031 -8 8 -8 z m 0 0" fill="url(#a)"/>
    <path d="m 20 12 h 88 c 4.417969 0 8 3.582031 8 8 v 80 c 0 4.417969 -3.582031 8 -8 8 h -88 c -4.417969 0 -8 -3.582031 -8 -8 v -80 c 0 -4.417969 3.582031 -8 8 -8 z m 0 0" fill="url(#b)"/>
    <path d="m 20 14 h 88 c 3.3125 0 6 2.6875 6 6 v 80 c 0 3.3125 -2.6875 6 -6 6 h -88 c -3.3125 0 -6 -2.6875 -6 -6 v -80 c 0 -3.3125 2.6875 -6 6 -6 z m 0 0" fill="#061420"/>

    <!-- Top-left accent marks (matching arch/kali/gentoo style) -->
    <path d="m 46.011719 40.886719 l -14.011719 -7.613281 v 4.726562 l 9.710938 4.628906 v 0.144532 l -9.710938 5.226562 v 4.726562 l 14.011719 -8.210937 z m 0 0" fill="#2abfd8"/>
    <path d="m 50 56 v 4 h 16 v -4 z m 0 0" fill="#2abfd8"/>

    <!-- Circle badge bottom-right -->
    <circle cx="100" cy="102" r="24" fill="url(#shadowgrad)"/>
    <circle cx="100" cy="98" r="24" fill="url(#artixgrad)"/>

    <!-- Artix "A" logo, white, centered in badge circle -->
    <g transform="translate(84.5,79) scale(1.3)">
        <path fill="#fff" d="M12 0L7.873 8.462l11.358 6.363zM6.626 11.018L.295 24l18.788-7.762zm13.846 6.352l-5.926 3.402L23.706 24Z"/>
    </g>
</svg>