<?xml version="1.0" encoding="UTF-8"?>
<svg height="128px" viewBox="0 0 128 128" width="128px" xmlns="http://www.w3.org/2000/svg">
    <defs>
        <linearGradient id="a" gradientUnits="userSpaceOnUse" x1="11.999989" x2="115.999989" y1="64" y2="64">
            <stop offset="0" stop-color="#050d1a"/>
            <stop offset="0.05" stop-color="#123a5e"/>
            <stop offset="0.1" stop-color="#0e2f4d"/>
            <stop offset="0.899999" stop-color="#0e2f4d"/>
            <stop offset="0.95" stop-color="#123a5e"/>
            <stop offset="1" stop-color="#050d1a"/>
        </linearGradient>
        <linearGradient id="b" gradientUnits="userSpaceOnUse" x1="12" x2="112.041023" y1="60" y2="80.988281">
            <stop offset="0" stop-color="#123a5e"/>
            <stop offset="0.384443" stop-color="#1b87c9"/>
            <stop offset="0.720567" stop-color="#123a5e"/>
            <stop offset="1" stop-color="#123a5e"/>
        </linearGradient>
        <linearGradient id="steamgrad" gradientUnits="userSpaceOnUse" x1="76" y1="74" x2="124" y2="122">
            <stop offset="0" stop-color="#4fc3f7"/>
            <stop offset="0.4" stop-color="#136497"/>
            <stop offset="1" stop-color="#051839"/>
        </linearGradient>
        <linearGradient id="shadowgrad" gradientUnits="userSpaceOnUse" x1="76" y1="102" x2="124" y2="102">
            <stop offset="0" stop-color="#0a2f4d"/>
            <stop offset="0.15" stop-color="#0d3a5c"/>
            <stop offset="0.5" stop-color="#1a6fa8"/>
            <stop offset="0.85" stop-color="#0d3a5c"/>
            <stop offset="1" stop-color="#0a2f4d"/>
        </linearGradient>
    </defs>
    <path d="m 20 22 h 88 c 4.417969 0 8 3.582031 8 8 v 78 c 0 4.417969 -3.582031 8 -8 8 h -88 c -4.417969 0 -8 -3.582031 -8 -8 v -78 c 0 -4.417969 3.582031 -8 8 -8 z m 0 0" fill="url(#a)"/>
    <path d="m 20 12 h 88 c 4.417969 0 8 3.582031 8 8 v 80 c 0 4.417969 -3.582031 8 -8 8 h -88 c -4.417969 0 -8 -3.582031 -8 -8 v -80 c 0 -4.417969 3.582031 -8 8 -8 z m 0 0" fill="url(#b)"/>
    <path d="m 20 14 h 88 c 3.3125 0 6 2.6875 6 6 v 80 c 0 3.3125 -2.6875 6 -6 6 h -88 c -3.3125 0 -6 -2.6875 -6 -6 v -80 c 0 -3.3125 2.6875 -6 6 -6 z m 0 0" fill="#020814"/>
    <path d="m 46.011719 40.886719 l -14.011719 -7.613281 v 4.726562 l 9.710938 4.628906 v 0.144532 l -9.710938 5.226562 v 4.726562 l 14.011719 -8.210937 z m 0 0" fill="#1b87c9"/>
    <path d="m 50 56 v 4 h 16 v -4 z m 0 0" fill="#1b87c9"/>
    <circle cx="100" cy="102" r="24" fill="url(#shadowgrad)"/>
    <circle cx="100" cy="98" r="24" fill="url(#steamgrad)"/>
    <g transform="translate(100,98) scale(0.66)">
        <path fill="#fff" d="M-1.7-8v.2L-9.5 3.5c-1.3-.1-2.5.2-3.7.7-.5.2-1 .5-1.5.8l-17.2-7.1s-.4 6.5 1.3 11.4l12.2 5c.6 2.7 2.5 5.1 5.2 6.3 4.5 1.9 9.7-.3 11.6-4.8.5-1.2.7-2.4.7-3.7l11.2-8h.3c6.7 0 12.2-5.5 12.2-12.2s-5.4-12.2-12.2-12.2C3.8-20.2-1.7-14.7-1.7-8m-1.8 23c-1.5 3.5-5.5 5.1-9 3.7-1.5-.7-2.8-1.8-3.5-3.4l4 1.6c2.6 1.1 5.5-.1 6.6-2.7s-.1-5.5-2.7-6.6L-12.3 6c1.6-.6 3.4-.6 5 .1 1.7.7 3 2 3.7 3.7s.7 3.5.1 5.2M10.5.1C6 .1 2.4-3.5 2.4-8s3.6-8.1 8.1-8.1 8.1 3.6 8.1 8.1S15 .1 10.5.1M4.4-8c0-3.4 2.7-6.1 6.1-6.1s6.1 2.7 6.1 6.1-2.7 6.1-6.1 6.1S4.4-4.7 4.4-8"/>
    </g>
</svg>